<?xml version="1.0" encoding="UTF-8"?>
<!DOCTYPE svg PUBLIC "-//W3C//DTD SVG 1.1//EN" "http://www.w3.org/Graphics/SVG/1.1/DTD/svg11.dtd">
<!-- Creator: CorelDRAW -->
<svg xmlns="http://www.w3.org/2000/svg" xml:space="preserve" width="210mm" height="297mm" version="1.1" style="shape-rendering:geometricPrecision; text-rendering:geometricPrecision; image-rendering:optimizeQuality; fill-rule:evenodd; clip-rule:evenodd"
viewBox="0 0 21000 29700"
 xmlns:xlink="http://www.w3.org/1999/xlink"
 xmlns:xodm="http://www.corel.com/coreldraw/odm/2003">
 <defs>
  <style type="text/css">
   <![CDATA[
    .fil0 {fill:#663300}
   ]]>
  </style>
 </defs>
 <g id="Слой_x0020_1">
  <metadata id="CorelCorpID_0Corel-Layer"/>
  <path class="fil0" d="M18788.47 14098.93l312.09 -172.19 -346.09 -75.25 34 247.44zm-304.63 387.59l-27.39 -199.25 190.75 -108.21 -49.84 -362.41 -211.95 -45.8 -26.67 -194.26 935.88 225.78 26.57 193.54 -837.35 490.61zm143.45 -1546.88l-233.34 55.09 37.6 166.59c14.69,65.01 25.61,105.72 33.23,122.34 10.68,25.71 27.44,44.71 49.55,57.28 22.25,12.41 48.98,15.11 79.88,7.79 26.27,-6.18 46.9,-18.02 62.29,-35.26 15.3,-17.4 24.5,-39.21 27.29,-65.69 2.8,-26.54 -5.18,-80.85 -23.68,-162.74l-32.82 -145.4zm347.15 -81.89l-201.83 47.62 26.68 117.98c15.85,70.2 26.73,113.61 32.57,130.18 10.42,29.96 26.27,51.77 47.56,65.38 21.24,13.6 45.99,16.92 74.24,10.23 27.03,-6.34 47.31,-19.06 60.77,-38.17 13.37,-19.37 18.45,-44.35 15.15,-75.09 -1.99,-18.33 -12.61,-69.95 -31.76,-154.69l-23.38 -103.44zm104.63 -214.57l80.59 356.64c15.95,70.62 25.05,124.06 26.98,160.15 2.08,36.09 -2.85,69.84 -14.94,101.52 -12.14,31.78 -31.2,60.13 -57.57,85.57 -26.17,25.45 -58.28,42.64 -95.89,51.52 -40.8,9.6 -80.99,7.27 -120.17,-7.06 -39.28,-14.65 -71.8,-39.11 -97.51,-73.53 -3.25,57.89 -20.17,106.08 -50.81,143.94 -30.8,38.11 -71.4,62.99 -121.8,74.93 -39.69,9.35 -80.39,9.09 -122.26,-0.93 -41.67,-10.08 -77.59,-28.72 -107.32,-56.09 -29.72,-27.31 -52.64,-64.33 -68.8,-111.07 -9.76,-29.23 -28.15,-101.26 -54.93,-215.97l-68.6 -303.67 873.03 -205.95zm-709.05 -722.84c-95.84,33.76 -160.93,82.15 -195.23,144.67 -34.25,62.84 -39.53,128.94 -16,198.68 23.37,69.53 67.17,118.19 131.55,145.61 64.13,27.21 145.23,23.78 243.45,-10.86 97.05,-34.11 162.09,-81.37 195.43,-141.6 33.08,-60.34 37.45,-126.55 13.21,-198.52 -24.34,-72.18 -68.14,-121.67 -131.3,-148.83 -63.16,-26.95 -143.45,-23.47 -241.11,10.85zm-66.31 -178.01c86.33,-30.37 163.16,-42.79 230.64,-36.97 49.69,4.62 97.56,17.76 143.34,39.78 45.63,22.01 83.64,50.37 113.83,85.06 40.7,46.11 72.71,104.32 96.44,174.89 42.99,127.59 38.72,243.18 -13.01,347.09 -51.52,103.75 -146.29,179.93 -284.2,228.48 -136.89,48.14 -256.61,47.67 -359.55,-1.09 -102.7,-48.87 -175.62,-136.83 -218.4,-263.85 -43.4,-128.83 -39.43,-244.73 11.69,-347.71 51.32,-103.13 144.46,-178.21 279.22,-225.68zm40.6 -928.31l84.96 163.21 -336.74 182.94c22.46,34.69 44.56,54.26 65.9,59.09 21.44,4.83 72.87,2.44 154.02,-7.37 103.3,-12.62 174.29,-7.53 212.8,15.21 38.62,22.54 77.29,71.46 116.52,146.75 1.93,3.79 6.25,11.58 12.85,23.47l-118.04 64.13 -11.48 -23.42c-17.38,-33.33 -34.1,-55.61 -50.25,-66.67 -16.16,-11.01 -35.07,-16.93 -56.56,-17.29 -21.54,-0.57 -62.8,3.68 -124.14,12.88 -32.47,4.82 -60.92,6.54 -85.26,5.08 -24.34,-1.76 -52.29,-12.93 -83.84,-33.44 8.79,41.86 4.16,82.93 -14.03,123.28 -18.24,40.3 -47.97,89.84 -88.92,148.31l-159.61 228.22 -99.79 -191.87 154.21 -207.61c2.14,-3.17 6.1,-9.14 11.84,-18.54 2.09,-3.27 10.83,-16.98 26.63,-40.56 28.05,-42.06 43.34,-72.49 46.14,-91.18 2.79,-18.7 -2.95,-41.91 -16.92,-69.79l-346.5 188.24 -84.91 -163.16 791.12 -429.91zm-690.76 -147.53l211.64 -290.9 -344.82 81.37 133.18 209.53zm-115.81 482.88l-107.26 -168.82 128.2 -180.4 -195.07 -307 -211.08 50.06 -104.47 -164.51 941.52 -199.61 104.22 163.94 -556.06 806.34zm-312.04 -1629.87l-79.02 -166.12c137.35,-63.76 261.69,-25.13 373.53,116.06 66.21,83.5 98.07,161.34 95.99,233.58 -2.24,72.38 -27.59,128.47 -76.07,168.55 -33.23,27.53 -70.83,42.74 -113.06,45.34 -42.17,2.8 -88.62,-6.81 -139.73,-28.98 21.54,60.39 27.23,114.35 16.97,162.07 -10.37,47.56 -36.59,89 -79.02,124.16 -60.97,50.42 -128.66,68.34 -202.69,53.85 -73.83,-14.59 -147,-67.66 -219.36,-158.9 -58.9,-74.41 -93.4,-143.01 -103.26,-206.16 -9.9,-63.09 9.86,-132.98 59.1,-209.68l146.55 96.48c-31,48.24 -43.81,88.75 -38.27,121.46 5.39,32.56 21.35,65.43 47.41,98.46 35.88,45.23 71.7,70.41 107.22,75.29 35.57,4.94 65.6,-2.96 90.4,-23.47 28.55,-23.57 42.07,-54.26 41.05,-92.17 -1.27,-37.86 -20.53,-80.39 -57.92,-127.64l-25.87 -32.56 104.88 -86.82 13.16 16.56c34.91,44.04 71.29,69.64 108.95,76.91 37.8,7.37 72.61,-2.29 104.57,-28.72 25.41,-21.03 39.38,-48.19 41.72,-81.47 2.39,-33.24 -10.37,-67.61 -38.37,-102.93 -47.66,-60.13 -107.42,-74.62 -178.86,-43.15zm-594.57 -255.54l153.41 -326.83 -323.23 147.11 169.82 179.72zm-23.52 496.54l-136.79 -144.72 92.12 -202.11 -248.83 -263.27 -197.77 90.25 -133.33 -141.09 887 -379.54 132.87 140.62 -395.27 899.86zm-482.58 -1525.44l-163.36 198.89 75.76 64.96c54.67,46.89 94.21,74.62 118.65,83.08 24.34,8.42 48.17,9.3 71.59,2.65 23.28,-6.75 43.4,-20.35 60.42,-41.13 20.94,-25.44 30.9,-52.81 29.88,-82.09 -1.02,-28.93 -11.13,-55.46 -30.13,-78.67 -13.98,-17.56 -45.99,-47.57 -95.84,-90.31l-66.97 -57.38zm-617.03 463.88l575.92 -701.5 222.31 190.68c84.25,72.23 136.28,122.97 156.1,151.89 30.69,44.19 45.02,95.44 42.58,153.45 -2.44,58 -26.57,114.91 -72.36,170.63 -35.36,43.1 -72.81,72.8 -112.14,88.9 -39.48,16.2 -77.7,22.7 -115.2,19.22 -37.14,-3.54 -70.27,-12.93 -98.98,-28.41 -38.57,-21.65 -89.33,-59.35 -152.14,-113.2l-90.29 -77.43 -217.23 264.58 -138.57 -118.81zm-406.15 -751.3l71.5 -355.03 -278.87 222.56 207.37 132.47zm94.72 487.61l-167.03 -106.67 41.57 -218.82 -303.71 -193.95 -170.63 136.41 -162.71 -103.9 770.79 -587.52 162.25 103.55 -170.53 970.9zm-1479.89 -866.53l406.81 -815.89 161.28 84.02 -160.06 321.02 315.86 164.45 160.11 -321.02 161.08 83.92 -406.76 815.84 -161.18 -83.91 177.89 -356.75 -315.8 -164.46 -177.9 356.75 -161.33 -83.97zm-620.18 -709.44c-31.3,98.56 -32.67,180.81 -4.42,246.45 28.45,65.79 76.93,109.83 145.58,132.63 68.45,22.74 132.78,16.35 192.99,-19.74 59.86,-35.98 105.95,-104.27 138.06,-205.27 31.71,-99.7 33.94,-181.23 6.91,-244.68 -27.24,-63.3 -76.32,-106.71 -147.21,-130.29 -71.03,-23.52 -136.13,-17.6 -195.37,17.66 -59,35.36 -104.63,102.92 -136.54,203.24zm-179.07 -52.97c28.26,-88.79 64.79,-158.89 109.96,-210.51 33.49,-37.75 72.62,-68.91 117.33,-93.06 44.67,-23.94 89.69,-37.9 135.01,-41.69 60.52,-5.46 125.26,3.47 194.67,26.53 125.61,41.7 213.36,114.76 263.37,219.5 50.15,104.53 52.64,227.7 7.57,369.47 -44.72,140.72 -117.13,238.19 -217.23,292.82 -100,54.42 -212.65,60.96 -337.66,19.42 -126.72,-42.06 -214.94,-115.07 -264.68,-218.77 -49.65,-103.91 -52.34,-225.16 -8.34,-363.71zm-422.1 -584.81l-85.83 379.7c29.83,4.47 54.68,-1.3 74.24,-17.66 19.56,-16.41 50.71,-56.75 93.4,-121.51 55.74,-84.64 104.93,-135.63 147.3,-152.56 41.87,-16.57 104.63,-14.91 188.98,5.03 3.86,0.89 12.45,2.7 25.76,5.41l-30.08 133.19 -25.46 -6.7c-35.82,-8.41 -63.01,-10.07 -81.76,-4.83 -18.75,5.2 -35.51,15.89 -49.89,32.2 -14.59,16.25 -38.47,50.84 -71.96,104.22 -17.73,28.25 -35.11,51.25 -52.18,69.06 -17.28,17.61 -43.85,31.89 -79.68,42.74 36.54,21.03 63.88,51.77 81.71,92.12 17.94,40.35 34.96,95.55 51.47,165.49l63.67 272.78 -207.11 -48.86 -52.85 -255.33c-0.46,-3.59 -2.28,-10.6 -5.69,-21.24 -1.88,-6.8 -5.79,-22.64 -12.04,-47.05 -12.55,-47.82 -24.7,-79.34 -36.23,-94.56 -11.74,-15.21 -28.15,-25.24 -49.09,-30.17l-88.26 390.76 -172.16 -40.66 88.27 -390.71c-20.38,-4.77 -38.88,-3.27 -56.3,4.62 -17.18,8 -41.72,31.11 -73.28,69.43 -17.88,21.34 -28.35,33.5 -31.6,36.72 -4.83,5.19 -9.71,10.64 -14.23,16.56l-157.01 205.79 -207.32 -48.86 174.39 -216.65c43.14,-53.48 81.6,-94.97 115.65,-124.31 34.04,-29.45 72.51,-45.08 115.19,-47.46 -27.54,-25.76 -45.37,-50.32 -53.3,-73.85 -7.82,-23.26 -13.72,-52.03 -17.89,-85.83 -7.06,-61.59 -13.56,-102.98 -19.2,-124.37 -5.85,-21.55 -16.26,-38.9 -31,-52.24 -14.79,-13.29 -41.16,-24.56 -79.17,-33.55 -4.87,-1.14 -12.45,-2.7 -22.91,-4.72l30.08 -133.2c13.11,3.59 21.64,5.82 25.46,6.7 85.41,20.15 143.29,47.15 173.73,81.22 29.87,34.43 51.52,101.67 65.24,202.05 10.93,77.84 21.6,128.26 31.96,151.47 10.62,23.11 30.29,39.36 58.95,48.71l85.82 -379.7 172.21 40.61zm-1404.79 557.03l175.66 12.52c56.2,4.05 95.73,4.1 118.8,0.15 23.28,-4.1 43.96,-15.47 62.15,-34.01 18.24,-18.8 28.4,-42.63 30.38,-71.76 2.95,-42.32 -9.75,-74.21 -37.95,-95.71 -28.05,-21.44 -77.75,-34.63 -148.89,-39.72l-183.59 -13.09 -16.56 241.62zm-128.36 -773l668.2 47.72 -10.47 153.4 -487.86 -34.84 -14.43 211.76 241.42 17.24c66.77,4.83 121.39,17.03 164.12,36.76 42.79,19.74 78.16,53.23 106.31,100.33 27.89,47.1 39.94,100.74 35.82,160.92 -4.27,61.9 -23.53,113.73 -57.93,155.53 -34.2,41.8 -71.85,69.48 -113.16,82.77 -41.06,13.3 -98.68,17.24 -172.71,12l-421.86 -30.12 62.55 -913.47zm-961.59 -10.54l169.41 -3.01 10.37 609.43 352.54 -615.92 180.19 -3.17 15.65 915.49 -169.16 3.01 -10.21 -597.69 -352.29 604.18 -180.85 3.22 -15.65 -915.54zm-882.73 1019.56l246.95 -512.38 -327.59 -400.1 209.76 -26.28 213.57 269.61 139.48 -313.9 208.08 -26.17 -223.63 476.18 360.22 429.28 -216.62 27.16 -234.91 -289.5 -160.01 339.04 -215.3 27.06zm-749.75 -284.52c22.81,100.95 63.11,172.14 120.43,213.58 57.52,41.34 121.29,53.64 191.61,37.03 70.13,-16.57 122.06,-55.93 155.44,-118.5 33.23,-62.32 38.32,-145.09 14.94,-248.58 -23.07,-102.2 -62.3,-173.23 -117.38,-213.43 -55.28,-39.93 -119.26,-51.3 -191.82,-34.16 -72.81,17.18 -125.61,56.54 -158.59,117.92 -32.77,61.38 -37.85,143.33 -14.63,246.14zm-180.13 48.81c-20.58,-90.97 -24.6,-170.27 -11.95,-238.29 9.76,-50.01 27.54,-97.32 53.71,-141.56 26.22,-44.03 57.78,-79.71 94.72,-106.76 49.09,-36.56 109.1,-62.94 180.24,-79.76 128.71,-30.33 240.7,-13.92 336.43,49.54 95.63,63.19 159.86,167.52 192.63,312.71 32.58,144.2 19.62,265.82 -38.66,365.31 -58.24,99.29 -151.48,164.2 -279.58,194.42 -129.88,30.58 -242.28,14.49 -337.15,-48.24 -94.92,-62.94 -158.38,-165.45 -190.39,-307.37zm-241.37 204.55l183.84 -1.4c4.58,103.59 -15.44,188.24 -60.26,254.24 -44.72,65.74 -112.96,113.93 -204.37,144.3 -113.11,37.6 -218.7,28.93 -316.62,-25.75 -97.97,-54.94 -168.8,-150.85 -212.35,-287.68 -46.09,-145.04 -45.17,-269.77 2.49,-374.3 47.82,-104.43 131.25,-176.56 250.66,-216.18 104.17,-34.58 198.89,-31.31 284,10.13 50.71,24.2 96.7,68.08 138.31,131.43l-157.21 98.14c-24.29,-41.95 -56.66,-70.62 -97.16,-86.14 -40.19,-15.53 -83.23,-15.58 -128.91,-0.42 -63.01,20.93 -107.12,61.12 -131.61,120.63 -24.59,59.25 -20.38,140.78 12.65,244.63 35.01,110.04 79.17,182.11 132.88,215.87 53.61,33.96 111.38,40.55 173.33,19.99 45.78,-15.16 80.38,-43 103.86,-83.81 23.52,-40.51 32.21,-95.19 26.47,-163.68zm-1384.36 124.11l-125.86 65.53c-63.93,33.29 -105.29,56.5 -123.84,70 -18.7,13.6 -31.09,32.45 -37.09,57.12 -6,24.61 -2.13,50.58 11.64,78.2 14.17,28.46 32.62,47.62 54.98,57.18 22.35,9.71 45.42,10.8 68.95,3.63 23.68,-7.06 68.65,-28.09 135.06,-62.68l119.31 -62.1 -103.15 -206.88zm337.91 677.76l-169.77 -340.54 -32.77 17.03c-50.71,26.38 -82.68,52.86 -95.94,79.35 -13.06,26.43 -25.51,91.55 -37.3,195.3l-27.94 238.3 -192.79 100.37 18.04 -209.89c7.06,-83.09 15.65,-143.32 25.81,-180.71 10.27,-37.18 27.75,-74.93 52.04,-113.05 -80.24,26.95 -147.06,28.56 -200.61,4.73 -53.56,-23.79 -94.57,-64.19 -123.02,-121.36 -24.85,-49.8 -34.56,-100.22 -29.17,-151.37 5.39,-51.2 24.9,-93.78 58.54,-127.79 33.38,-33.96 90.14,-71.87 170.07,-113.52l339.23 -176.6 406.76 815.84 -161.18 83.91zm-1022.26 199.77l-291.88 -206 91.57 349.27 200.31 -143.27zm476.17 101.36l-161.28 115.44 -180.9 -124.58 -293.4 209.95 56.31 213.79 -157.22 112.47 -228.05 -954.69 156.66 -112.12 807.88 539.74zm-1811.7 249.88l138.51 -118.76 245.18 298.48c28.45,-29.65 42.68,-55.77 42.83,-78.15 0.16,-22.38 -12.8,-73.32 -39.12,-152.41 -33.54,-100.58 -43.4,-172.61 -29.63,-215.86 13.52,-43.26 52.29,-92.12 116.27,-146.96 3.2,-2.75 9.75,-8.67 19.71,-17.76l85.98 104.64 -20.07 16.41c-28.31,24.25 -46.14,45.64 -53.36,64.08 -7.16,18.38 -8.84,38.53 -4.83,60.08 3.92,21.7 16.62,62 38.22,121.46 11.38,31.46 18.85,59.51 22.51,84.17 3.4,24.67 -1.43,54.94 -14.59,90.72 38.27,-17.45 78.56,-21.39 120.99,-11.63 42.38,9.86 95.94,29.34 160.42,58.11l251.63 112.06 -162.86 139.68 -230.85 -111.02c-3.4,-1.45 -10.01,-4.21 -20.17,-8 -3.61,-1.4 -18.5,-7.27 -44.36,-18.17 -46.04,-19.21 -78.4,-28.2 -96.9,-27.11 -18.45,1.09 -39.48,11.58 -63.26,31.42l252.23 307.2 -138.51 118.82 -575.97 -701.5zm117.27 706.17l161.69 -89.47c51.68,89.26 72.87,173.59 63.62,253.41 -9.25,79.45 -47.41,154.74 -114.18,225.42 -82.62,87.49 -179.83,130.49 -291.36,129.19 -111.74,-1.5 -218.4,-52.18 -319.72,-152.2 -107.27,-105.88 -163.72,-216.43 -169.72,-331.66 -5.79,-115.08 34.81,-218.78 122.06,-311.1 76.01,-80.54 161.18,-123.07 255.39,-127.28 55.89,-3.01 116.61,13.71 182.47,49.64l-93.75 162.07c-40.71,-25.34 -82.42,-35.15 -125.31,-29.39 -42.63,5.56 -80.69,26.17 -114.02,61.43 -46.04,48.76 -66.52,105.36 -60.83,169.65 5.49,64.18 46.75,134.08 123.53,209.94 81.5,80.39 153.61,122.87 216.51,126.87 62.96,4.31 117.03,-17.61 162.25,-65.49 33.49,-35.41 51.22,-76.59 53.2,-123.84 2.14,-47.05 -15.29,-99.5 -51.83,-157.19zm-1117.89 654.29l197.51 163.47 62.2 -78.57c44.92,-56.65 71.39,-97.52 79.21,-122.65 7.83,-25.03 8.24,-49.38 1.33,-73.22 -7.02,-23.68 -20.69,-43.98 -41.26,-61.01 -25.26,-20.93 -52.24,-30.64 -80.85,-29.08 -28.3,1.5 -54.06,12.36 -76.47,32.19 -16.92,14.54 -45.68,47.78 -86.64,99.44l-55.03 69.43zm464.64 622.41l-696.35 -576.24 182.62 -230.51c69.21,-87.29 117.94,-141.35 145.89,-162.07 42.73,-32.19 92.58,-47.67 149.39,-46.16 56.81,1.4 112.96,25.13 168.29,70.88 42.74,35.41 72.46,73.11 88.88,113.05 16.56,40.03 23.52,79.03 20.83,117.35 -2.79,38.07 -11.43,72.03 -26.07,101.63 -20.53,39.77 -56.55,92.27 -108.08,157.44l-74.24 93.63 262.66 217.37 -113.82 143.63zm-437.15 710.58l-751.48 -498.71 361.79 -569.29 127.19 84.38 -263.27 414.29 166.57 110.55 244.97 -385.51 126.53 83.96 -244.98 385.52 204.53 135.74 272.56 -428.93 126.68 84.02 -371.09 583.98zm-246.4 491.97l-657.27 -357.11 -124.69 239.81 -133.95 -72.76 334.3 -642.45 133.85 72.75 -124.44 239.29 657.22 357.11 -85.02 163.36zm-498.68 327.04l117.13 -144.77c80.64,62.99 131.2,133.04 151.88,210.57 20.53,77.27 12.8,161.65 -23.22,252.73 -44.57,112.68 -118.91,189.8 -222.87,231.29 -104.12,41.38 -221.55,35.26 -352.09,-18.7 -138.36,-57.12 -231.25,-138.02 -278.96,-242.5 -47.62,-104.53 -48.02,-216.23 -0.97,-335.2 41.06,-103.75 104.37,-175.82 190.2,-215.81 50.66,-24.15 113.16,-31.88 187.4,-23.78l-27.49 186.16c-47.06,-7.94 -89.38,-1.04 -126.99,20.72 -37.5,21.45 -65.24,55.15 -83.18,100.58 -24.85,62.84 -23.07,123.18 5.74,180.56 28.66,57.38 92.48,106.5 191.52,147.37 105.03,43.36 187.45,55.1 247.26,34.74 59.91,-20.1 101.98,-61.12 126.37,-122.81 18.09,-45.65 19.41,-90.61 3.96,-135.17 -15.29,-44.5 -50.66,-86.46 -105.69,-125.98zm-342.53 963.94l-352.49 40.25 293.34 202.21 59.15 -242.46zm424.54 -242.76l-47.66 195.3 -216.51 27.26 -86.69 355.14 179.78 123.59 -46.45 190.31 -784.96 -567.57 46.24 -189.69 956.25 -134.34zm-354.32 1837.99l-887.3 -127.43 37.7 -274.08 627.9 -77.52 -582.93 -249.47 37.76 -274.7 887.3 127.49 -23.37 169.91 -698.48 -100.33 673.73 280.41 -24.24 176.3 -723.17 79.09 698.48 100.32 -23.38 170.01zm16185.24 1065.1c175.62,0 317.99,140.72 317.99,314.16 0,173.55 -142.37,314.27 -317.99,314.27 -175.51,0 -317.94,-140.72 -317.94,-314.27 0,-173.44 142.43,-314.16 317.94,-314.16zm-16542.4 17.45c175.61,0 318.04,140.72 318.04,314.16 0,173.54 -142.43,314.27 -318.04,314.27 -175.51,0 -317.94,-140.73 -317.94,-314.27 0,-173.44 142.43,-314.16 317.94,-314.16zm-130.24 2222.31l827.4 -601.33 76.47 193.23 -573.12 400.88 696.55 -88.59 88.77 224.59 -574.65 428.09 696.29 -120.47 75.21 190.21 -1005.6 150.8 -79.17 -200.44 610.93 -468.91 -758.13 96.79 -80.95 -204.85zm864.29 816.77c87.19,-51.41 167.73,-81.32 241.97,-89.57 54.67,-5.66 109.15,-1.77 163.26,12.2 53.92,14.13 100.82,36.56 140.65,67.61 53.51,41.13 100.11,97.16 140.35,168.4 72.82,128.84 91.87,254.87 57.32,378.35 -34.35,123.38 -121.19,226.2 -260.37,308.35 -138.26,81.63 -267.94,106.76 -389.33,76.13 -121.24,-30.85 -218.19,-110.3 -290.6,-238.56 -73.48,-130.03 -93.09,-256.32 -58.95,-378.76 34.35,-122.55 119.67,-223.87 255.7,-304.15zm108.38 178.32c-96.75,57.18 -157.22,123.49 -181.45,198.58 -24.09,75.24 -16.21,147.94 23.52,218.35 39.69,70.21 97.01,113.42 172.36,129.2 74.95,15.79 161.94,-5.45 261.18,-64.03 97.97,-57.79 158.64,-122.86 182.27,-195.14 23.43,-72.39 14.43,-144.98 -26.57,-217.68 -41.21,-72.86 -98.74,-117.05 -172.72,-132.84 -73.83,-15.57 -160.01,5.4 -258.59,63.56zm47.41 1045.89l799.04 -593.23 246.75 347.19c62.04,87.24 99.8,155.94 113.57,206.1 13.82,50.11 10.87,100.85 -8.89,151.79 -19.92,51.15 -53.36,93.99 -100.61,129.09 -59.91,44.4 -122.41,63.3 -187.05,56.34 -64.43,-7.06 -127.59,-42.68 -188.52,-106.92 4.93,51 3.51,97.01 -4.32,138.29 -7.87,41.28 -28.86,104.53 -63.11,189.95l-84.9 215.55 -140.15 -197.06 89.23 -248.37c32.01,-88.54 50.51,-146.44 55.59,-174.01 5.08,-27.63 4.32,-52.35 -1.93,-74.31 -6.5,-22.02 -23.17,-51.72 -50.2,-89.74l-23.68 -33.23 -333.49 247.54 -117.33 -164.97zm578.46 -177.39l86.64 121.88c56.25,79.08 94.56,126.18 115.14,141.14 20.38,14.69 42.68,21.6 66.72,21.03 23.78,-0.89 47.76,-9.92 71.8,-27.78 26.98,-20 43.29,-43.42 49.39,-70.42 6.15,-26.9 1.78,-55.35 -12.76,-85.47 -7.77,-14.59 -35.41,-55.41 -82.97,-122.29l-91.37 -128.47 -202.59 150.38zm16.26 987.41l710.37 -701.08 138.52 146.59 -315.5 311.26 595.38 -15.11 186.18 197.01 -534.96 -0.2 -161.39 716.24 -179.22 -189.69 144.97 -528.53 -231.25 -1.81 -214.63 211.86 -138.47 -146.54zm865.86 438.79l160.93 112.48c-33.18,58.68 -45.74,111.7 -37.91,159.21 7.83,47.15 34.65,90.77 81.2,130.7 49.14,42.12 95.02,63.41 137.45,63.25 42.43,0.26 75.36,-13.91 98.78,-42.37 15.04,-18.38 22.46,-38.38 22.41,-60.13 0.2,-21.92 -8.94,-48.76 -27.49,-80.65 -12.45,-21.81 -44.21,-67.97 -94.46,-138.7 -64.94,-90.98 -101.37,-165.8 -109.5,-224.17 -11.54,-82.41 7.77,-154.23 57.92,-215.4 32.42,-39.41 73.53,-66.78 123.58,-82.36 49.95,-15.52 102.9,-14.59 158.69,2.6 55.9,17.5 112.76,50.94 170.89,100.79 95.07,81.48 148.98,163.94 162.24,247.7 12.86,83.71 -8.58,162.07 -64.43,235.23l-158.28 -124.05c26.12,-45.39 35.52,-86.1 28.2,-121.77 -7.11,-35.94 -32.27,-72.24 -75.31,-109.11 -44.36,-38.06 -86.73,-58.73 -127.13,-61.48 -25.97,-2.02 -47.21,7.06 -63.62,27.06 -15.04,18.28 -20.32,40.5 -15.85,66.46 5.59,33.03 38.26,90.52 97.97,172.04 59.5,81.74 99.28,147.43 119.2,197.02 19.77,49.69 26.17,99.75 19.06,150.43 -7.27,50.48 -30.9,100.17 -70.99,148.93 -36.38,44.3 -82.47,75.61 -138.21,93.37 -56,18.07 -113.57,17.65 -172.97,-1.4 -59.65,-18.75 -122.21,-56.55 -187.91,-112.89 -95.68,-82.05 -150.61,-167.52 -164.79,-256.63 -14.12,-89.22 9.3,-181.34 70.33,-276.16zm551.33 884.03l566.46 -826.7 163.47 116.94 -222.92 325.33 320.03 229.01 222.91 -325.28 163.27 116.78 -566.47 826.8 -163.26 -116.84 247.66 -361.52 -320.02 -229 -247.67 361.52 -163.46 -117.04zm1009.15 102.71c45.68,-91.71 97.31,-161.6 155.13,-209.84 42.89,-35.16 90.66,-62.21 143.45,-80.65 52.74,-18.12 104.12,-25.49 154.02,-21.6 66.82,4.73 135.77,25.81 207.47,63.15 129.72,67.56 212.85,162.58 249.74,285.45 36.9,122.55 18.86,257.14 -54.06,403.53 -72.51,145.29 -167.84,238.61 -286.03,280.46 -118.04,41.65 -241.72,28.98 -370.89,-38.27 -130.84,-68.18 -214.53,-163.16 -251.17,-284.93 -36.48,-121.82 -18.95,-254.29 52.34,-397.3zm185.93 89.16c-50.77,101.83 -66.06,191.04 -46.4,267.53 19.92,76.55 65.25,133.15 136.18,170.07 70.63,36.76 141.77,41.12 213.32,12.51 71.29,-28.61 132.98,-94.87 184.91,-199.09 51.37,-103.08 67.63,-191.46 48.98,-265.2 -19.05,-73.73 -65.24,-129.66 -138.41,-167.72 -73.33,-38.22 -145.13,-43.21 -215.6,-15.22 -70.28,27.94 -131.36,93.47 -182.98,197.12zm581.96 871.46l353.92 -942.24 298.58 117.15c113.06,44.35 185.16,78.21 215.96,101.05 47.51,34.8 80.43,82.93 98.27,144.26 17.78,61.38 12.65,129.56 -15.45,204.39 -21.8,57.95 -50.41,102.56 -85.72,133.77 -35.37,31.41 -73.02,52.13 -113.26,62.26 -39.99,9.97 -77.8,12.3 -113.12,6.7 -47.86,-8.42 -113.97,-29.08 -198.32,-62.11l-121.29 -47.62 -133.54 355.35 -186.03 -72.96zm480.04 -709.7l-100.41 267.17 101.78 39.88c73.48,28.87 124.44,43.3 152.85,43.1 28.35,-0.26 53.5,-7.95 75.61,-23.42 21.8,-15.69 38,-37.18 48.47,-65.02 12.86,-34.32 13.62,-66.46 2.34,-96.58 -11.28,-29.86 -31.1,-53.7 -59.1,-70.94 -20.68,-13.19 -64.58,-32.66 -131.6,-58.93l-89.94 -35.26zm804.02 638.09c22.66,-100.22 56.15,-180.82 100.86,-241.88 33.23,-44.71 73.28,-82.83 120.13,-113.73 46.85,-30.63 94.91,-50.47 144.31,-59.09 65.95,-11.89 137.85,-8.46 216.26,9.97 141.82,33.55 245.02,105.15 309.86,215.24 64.84,109.83 79.16,244.84 43.09,404.94 -35.93,158.9 -106.3,273.03 -211.08,342.88 -104.68,69.53 -227.7,87.81 -368.96,54.47 -143.14,-33.75 -246.85,-105.21 -311.18,-214.25 -64.28,-109.26 -78.61,-242.15 -43.29,-398.55zm201.57 40.55c-25.2,111.34 -18.9,201.8 18.3,271.12 37.4,69.38 94.76,112.99 172.36,131.27 77.28,18.28 147.3,4.88 210.01,-40.6 62.35,-45.29 106.5,-124.84 132.27,-238.87 25.45,-112.69 20.22,-202.42 -15.35,-269.41 -35.87,-66.83 -93.95,-109.67 -173.93,-128.52 -80.24,-18.95 -151.07,-6.07 -212.86,38.53 -61.43,44.56 -105.19,123.23 -130.8,236.48zm776.54 683.64l120.37 -1001.75 672.16 84.33 -20.37 169.6 -474.04 -59.51 -28.46 236.95 409.25 51.36 -20.42 169.59 -409.25 -51.35 -51.07 425.65 -198.17 -24.87zm1163.98 -215.61l193.24 -26.38c13.67,66.26 39.13,114.29 76.02,144.21 36.69,29.7 85.21,43.77 145.93,41.54 64.08,-2.24 112.1,-17.81 143.6,-46.95 31.66,-28.82 46.85,-61.84 45.53,-98.97 -0.76,-23.99 -8.38,-43.88 -22.66,-60.08 -14.23,-16.41 -38.62,-30.12 -73.27,-41.18 -23.48,-7.58 -77.29,-20.25 -160.93,-38.43 -107.88,-23.16 -183.89,-53.85 -228.25,-91.81 -62.5,-53.27 -95.18,-119.79 -97.92,-199.61 -1.73,-51.46 10.92,-99.91 37.91,-145.71 26.88,-45.64 66.87,-81.16 119.56,-106.6 53.1,-25.09 117.23,-39.21 192.99,-41.86 124.14,-4.46 218.19,19.94 282.78,73.12 64.48,53.43 99.79,126.28 106.25,218.87l-198.99 16.05c-10.26,-51.57 -29.93,-88.23 -58.74,-109.83 -28.81,-21.81 -71.24,-31.57 -127.39,-29.6 -57.87,2.08 -102.9,15.68 -134.7,41.34 -20.69,16.25 -30.49,37.49 -29.58,63.61 0.76,23.89 11.38,43.93 31.71,60.18 25.81,20.72 87.7,41.13 185.47,60.91 97.76,20.05 170.27,41.6 217.53,64.86 47.26,23.42 84.81,56.24 112.65,98.77 27.75,42.42 42.69,95.6 44.87,159.21 1.93,57.74 -11.84,112.48 -41.56,163.94 -29.83,51.61 -72.92,90.77 -129.48,117.2 -56.65,26.79 -127.89,41.54 -213.62,44.55 -124.79,4.47 -221.59,-21.49 -290.5,-77.99 -68.9,-56.6 -111.79,-141.14 -128.45,-253.36zm881.61 -200.49c-12.25,-102.2 -7.77,-189.59 13.82,-262.66 16.26,-53.59 41.11,-103.38 74.8,-148.77 33.79,-45.18 72.31,-80.64 115.85,-105.98 57.98,-34.28 126.68,-56.19 206.61,-66.16 144.41,-18.12 265.4,13.14 363.16,93.83 97.67,80.54 156.41,202.47 176.02,365.52 19.41,161.92 -8.53,293.71 -83.59,395.96 -75.15,101.93 -184.65,162.17 -328.4,180.19 -145.89,18.27 -267.28,-12.67 -364.18,-92.64 -97.01,-80.13 -154.93,-199.98 -174.09,-359.29zm202.95 -32.41c13.62,113.47 49.8,196.19 107.93,248.38 58.43,52.08 126.93,73.06 205.94,63.14 78.71,-9.87 140.05,-46.94 183.75,-111.59 43.44,-64.34 58.33,-154.54 44.36,-270.7 -13.83,-114.77 -48.73,-197.33 -104.63,-247.8 -56.05,-50.27 -124.95,-70.21 -206.4,-59.98 -81.76,10.23 -144.01,47.15 -187.15,110.6 -42.89,63.36 -57.67,152.52 -43.8,267.95zm953.31 379.23l-272.16 -970.17 191.82 -56.18 107.07 381.72 375.56 -110.04 -107.06 -381.72 191.56 -56.19 272.26 970.18 -191.67 56.13 -119 -424.15 -375.56 110.04 119 424.2 -191.82 56.18zm960.78 -270.8l-321.55 -954.28 188.57 -66.31 321.5 954.23 -188.52 66.36zm-29.01 -1031.34l360.67 -164.1c71.39,-32.45 126.07,-53.79 163.87,-63.5 37.66,-9.97 74.5,-11.53 110.62,-4.83 36.23,6.7 70.18,21.81 102.7,45.64 32.42,23.53 57.37,55.46 74.69,95.13 18.8,43.16 24.8,88.02 17.84,134.45 -7.27,46.47 -26.27,87.49 -57.37,123.22 61.99,-8.52 116.62,0 163.06,25.96 46.9,25.97 81.76,65.69 104.93,118.92 18.29,41.8 26.52,86.93 24.8,135.32 -1.98,48.25 -14.08,91.81 -36.84,130.45 -22.67,38.63 -57.12,71.76 -103.1,99.44 -28.87,16.98 -101.33,52.45 -217.13,106.14l-307.06 139.79 -401.68 -922.03zm249.18 70.46l92.84 213.22 119.36 -54.27c70.99,-32.29 114.64,-53.43 130.95,-63.4 29.47,-17.81 49.29,-39.93 59.2,-66.31 9.9,-26.38 8.28,-54.47 -4.78,-84.28 -12.45,-28.61 -30.08,-48.35 -53.25,-59.2 -23.28,-10.64 -50.82,-11.06 -82.63,-0.93 -19.05,6.12 -71.39,28.66 -157.11,67.61l-104.58 47.56zm159.76 366.72l107.37 246.45 168.45 -76.59c65.75,-29.92 106.6,-50.58 122.56,-62.53 24.95,-17.24 41.56,-39.72 50.25,-66.78 8.39,-27.26 5.64,-57.43 -8.58,-90.04 -12.05,-27.68 -28.97,-47.98 -50.41,-61.43 -21.65,-13.24 -46.7,-18.85 -75.36,-16.41 -28.6,2.49 -84.5,22.8 -167.27,60.45l-147.01 66.88zm1254.43 -107.44l-537.86 -846.43 352.09 -233.73c88.52,-58.73 157.67,-93.62 207.32,-105.1 49.79,-11.37 99.13,-5.81 147.92,17.03 48.93,23.06 89.02,59.36 120.83,109.47 40.35,63.46 55.49,128.21 45.33,193.79 -10.27,65.43 -48.38,128.01 -114.33,186.84 50.05,-2.39 94.91,1.51 134.9,11.69 39.94,10.17 100.62,34.89 182.37,74.25l206.15 97.94 -199.95 132.67 -238.06 -104.06c-84.81,-37.23 -140.39,-59.14 -167.12,-65.79 -26.68,-6.65 -50.87,-7.12 -72.72,-1.87 -21.8,5.45 -51.67,20.93 -90.29,46.47l-33.74 22.39 224.54 353.37 -167.38 111.07zm-143.09 -599.61l123.58 -82c80.34,-53.22 128.3,-89.88 143.95,-110.14 15.5,-20.04 23.43,-42.47 24.04,-66.93 0.46,-24.36 -7.17,-49.33 -23.32,-74.73 -18.14,-28.66 -40.25,-46.47 -66.26,-54.16 -25.92,-7.73 -53.97,-4.72 -84.2,8.52 -14.59,7.22 -55.9,33.23 -123.78,78.25l-130.34 86.57 136.33 214.62zm1684.01 -503.55l-171.04 136.57 -206.2 -126.5 -311.08 248.48 74.04 231.91 -166.72 133.09 -304.93 -1037.36 166.21 -132.63 919.72 546.44zm-529.93 -83.55l-332.88 -209.48 120.48 379.08 212.4 -169.6zm535.26 62.42l-122.61 -134.45 -57.47 -840.35 -336.59 320.76 -114.02 -124.99 528.76 -503.8 105.7 115.8 58.58 874.93 411.03 -391.69 113.57 124.47 -586.95 559.32zm1276.39 -1411.36l-136.59 172.41 -228.66 -75.82 -248.53 313.59 123.22 208.91 -133.13 168.04 -525.41 -940.62 132.73 -167.47 1016.37 320.96zm-534.71 40.46l-370.48 -127.64 200.86 341.63 169.62 -213.99zm604.73 -131.07l-828.31 -549.66 108.59 -170.95 367.78 244.07 -148.37 -589.39 146.04 -229.73 120.12 532.79 719.11 -0.47 -140.45 221.11 -536.54 -25.45 50.26 230.67 250.36 166.06 -108.59 170.95zm82.06 -1024.02c-91.26,-43.46 -161.38,-93.78 -210.52,-151.11 -35.92,-42.58 -64.07,-90.41 -83.89,-143.69 -19.62,-53.22 -28.61,-105.41 -26.53,-156.51 2.29,-68.49 20.53,-139.58 54.53,-214.15 61.48,-134.86 151.57,-223.08 270.38,-264.99 118.54,-41.95 250.86,-28.3 396.49,41.18 144.67,68.91 239.28,163 284.3,282.23 44.87,119.07 36.74,245.88 -24.49,380.11 -62.04,136.11 -152.08,224.9 -269.87,266.5 -117.89,41.59 -247.97,28.25 -390.4,-39.57zm80.74 -193.02c101.28,48.3 189.18,60.81 263.27,38.01 74.19,-22.95 127.9,-71.24 161.53,-144.93 33.49,-73.48 35.32,-146.28 4.73,-218.41 -30.39,-71.71 -97.31,-132.41 -201.12,-181.9 -102.54,-48.81 -189.58,-62.26 -261.08,-40.61 -71.39,21.92 -124.44,71.04 -159.15,147.06 -34.8,76.28 -37.19,149.81 -7.36,220.8 29.87,70.73 96.08,130.81 199.18,179.98zm916.68 -882.15l-1048.74 12.51 70.48 -209.11 772.41 1.97 -612.35 -477.01 68.85 -204.33 818.66 670.28 -69.31 205.69z"/>
  <path class="fil0" d="M12030.07 10116.18c282.26,-285.75 616.66,-490.35 987.02,-651.54l187.48 -81.59 7.86 766.43 -77.39 37.44c-256.83,124.2 -467.35,275.63 -653.3,484.43 377.59,593.18 556.31,1286.09 623.54,1981.68l0.63 6.46 4.19 7101.36 799.27 0 0 734.62 -1533.25 0 0 -135.53c0,-2566.17 -4.07,-5132.34 -6.87,-7693.94 -17.35,-494.19 -123.78,-969.5 -360.23,-1399.26 -261.49,398 -371.18,859.94 -393.68,1339.94l2 7904.15 -135.58 0c-627.42,0 -1254.78,0 -1882.2,0 -27.78,0 -55.61,0 -83.39,0l-135.58 0 1.9 -7892.31c-21.18,-484.07 -130.34,-950.43 -394.03,-1351.78 -236.5,429.68 -342.94,904.48 -360.15,1394.56 -0.59,2566.35 -0.54,5132.74 -0.54,7699.14l0 135.53 -1551.41 0 0 -734.62 817.33 0 -2.12 -7101.77 0.63 -6.5c67.22,-695.68 245.9,-1388.55 623.57,-1981.73 -185.99,-208.76 -396.51,-360.23 -653.33,-484.43l-77.4 -37.44 7.77 -766.43 187.54 81.59c370.4,161.14 704.75,365.79 987.05,651.54 421.77,-397.69 945.42,-697.52 1481.93,-906.97l48.66 -18.97 48.79 18.57c534.36,203.02 1063.55,511.54 1483.29,907.37zm-464.23 534.17c-317.06,-273.5 -682.44,-548.94 -1065.09,-710.76 -383.55,162.04 -751.11,436.9 -1069.11,710.81 423.53,573.56 612.87,1243.3 671.24,1954.06l0.45 5.47 9.99 7166.33 771.25 0 10.52 -7178.48 0.5 -5.61c59.55,-706.47 249.28,-1371.78 670.25,-1941.82z"/>
 </g>
</svg>
