<?xml version="1.0" encoding="UTF-8"?>
<!DOCTYPE svg PUBLIC "-//W3C//DTD SVG 1.1//EN" "http://www.w3.org/Graphics/SVG/1.1/DTD/svg11.dtd">
<!-- Creator: CorelDRAW -->
<svg xmlns="http://www.w3.org/2000/svg" xml:space="preserve" width="210mm" height="297mm" version="1.1" style="shape-rendering:geometricPrecision; text-rendering:geometricPrecision; image-rendering:optimizeQuality; fill-rule:evenodd; clip-rule:evenodd"
viewBox="0 0 21000 29700"
 xmlns:xlink="http://www.w3.org/1999/xlink"
 xmlns:xodm="http://www.corel.com/coreldraw/odm/2003">
 <defs>
  <style type="text/css">
   <![CDATA[
    .fil0 {fill:#fff}
   ]]>
  </style>
 </defs>
 <g id="Слой_x0020_1">
  <metadata id="CorelCorpID_0Corel-Layer"/>
  <path class="fil0" d="M10492.87 6199.65c4777.72,0 8650.87,3873.1 8650.87,8650.82 0,4777.73 -3873.15,8650.93 -8650.87,8650.93 -4777.73,0 -8650.88,-3873.2 -8650.88,-8650.93 0,-4777.72 3873.15,-8650.82 8650.88,-8650.82zm0 739.09c-4369.6,0 -7911.79,3542.19 -7911.79,7911.79 0,4369.59 3542.19,7911.78 7911.79,7911.78 4369.59,0 7911.78,-3542.19 7911.78,-7911.78 0,-4369.6 -3542.19,-7911.79 -7911.78,-7911.79zm1805.85 2344.23c331.6,-335.69 724.45,-576.05 1159.54,-765.42l220.25 -95.85 9.23 900.39 -90.91 43.99c-301.72,145.9 -549.04,323.8 -767.49,569.1 443.59,696.85 653.54,1510.88 732.52,2328.04l0.74 7.59 4.93 8342.58 938.97 0 0 863.02 -1801.24 0 0 -159.22c0,-3014.7 -4.78,-6029.4 -8.07,-9038.73 -20.38,-580.57 -145.42,-1138.95 -423.2,-1643.83 -307.19,467.57 -436.05,1010.24 -462.48,1574.14l2.34 9285.68 -159.27 0c-737.08,0 -1474.1,0 -2211.18,0 -32.64,0 -65.33,0 -97.97,0l-159.27 0 2.23 -9271.77c-24.89,-568.68 -153.12,-1116.55 -462.9,-1588.05 -277.84,504.78 -402.88,1062.57 -423.1,1638.31 -0.69,3014.91 -0.64,6029.87 -0.64,9044.83l0 159.22 -1822.57 0 0 -863.02 960.19 0 -2.49 -8343.05 0.74 -7.64c78.97,-817.27 288.88,-1631.25 732.56,-2328.1 -218.5,-245.25 -465.82,-423.2 -767.53,-569.1l-90.92 -43.99 9.13 -900.39 220.31 95.85c435.14,189.31 827.93,429.73 1159.58,765.42 495.49,-467.2 1110.66,-819.44 1740.95,-1065.49l57.16 -22.29 57.32 21.81c627.75,238.51 1249.44,600.95 1742.54,1065.97zm-545.37 627.53c-372.47,-321.3 -801.72,-644.88 -1251.25,-834.99 -450.59,190.37 -882.39,513.27 -1255.97,835.05 497.56,673.81 719.99,1460.61 788.56,2295.61l0.53 6.42 11.73 8418.9 906.06 0 12.36 -8433.17 0.59 -6.59c69.95,-829.95 292.85,-1611.55 787.39,-2281.23z"/>
 </g>
</svg>
