<?xml version="1.0" encoding="UTF-8"?>
<svg xmlns="http://www.w3.org/2000/svg" version="1.1" xmlns:xodm="http://www.corel.com/coreldraw/odm/2003" viewBox="0 0 595.3 841.9">
  <defs>
    <style>
      .cls-1 {
        fill-rule: evenodd;
        fill:white
      }

      .cls-2 {
        font-family: AvantGardeCTT-Bold, AvantGardeCTT;
        font-size: 76.5px;
        font-weight: 700;
        fill:white
      }
    </style>
  </defs>
  <!-- Generator: Adobe Illustrator 28.7.1, SVG Export Plug-In . SVG Version: 1.2.0 Build 142)  -->
  <g>
    <g id="_Слой_1" data-name="Слой_1">
      <g id="_Слой_x5F_1" data-name="Слой_x5F_1">
        <path class="cls-1" d="M296.6,148.5c109,0,197.3,88.3,197.3,197.3s-88.3,197.3-197.3,197.3-197.3-88.3-197.3-197.3,88.3-197.3,197.3-197.3h0ZM296.6,165.4c-99.7,0-180.5,80.8-180.5,180.5s80.8,180.5,180.5,180.5,180.5-80.8,180.5-180.5-80.8-180.5-180.5-180.5h0ZM337.8,218.8c7.6-7.7,16.5-13.1,26.4-17.5l5-2.2.2,20.5-2.1,1c-6.9,3.3-12.5,7.4-17.5,13,10.1,15.9,14.9,34.5,16.7,53.1v.2s.1,190.3.1,190.3h21.4v19.7h-41.1v-3.6c0-68.8-.1-137.5-.2-206.2-.5-13.2-3.3-26-9.7-37.5-7,10.7-9.9,23-10.5,35.9v211.8c0,0-3.6,0-3.6,0h-56.3v-211.5c-.5-13-3.4-25.5-10.5-36.2-6.3,11.5-9.2,24.2-9.7,37.4,0,68.8,0,137.5,0,206.3v3.6h-41.6v-19.7h21.9v-190.3c0,0,0-.2,0-.2,1.8-18.6,6.6-37.2,16.7-53.1-5-5.6-10.6-9.7-17.5-13l-2.1-1,.2-20.5,5,2.2c9.9,4.3,18.9,9.8,26.4,17.5,11.3-10.7,25.3-18.7,39.7-24.3l1.3-.5,1.3.5c14.3,5.4,28.5,13.7,39.7,24.3h0ZM325.3,233.2c-8.5-7.3-18.3-14.7-28.5-19-10.3,4.3-20.1,11.7-28.6,19,11.3,15.4,16.4,33.3,18,52.4h0c0,.1.3,192.2.3,192.2h20.7l.3-192.3v-.2c1.6-18.9,6.7-36.8,18-52Z"/>
      </g>
      <text class="cls-2" transform="translate(9 645.9)"><tspan x="0" y="0">ARTMIX MASTER</tspan></text>
    </g>
  </g>
</svg>
